<svg width="130" height="137" viewBox="0 0 130 137" fill="none" xmlns="http://www.w3.org/2000/svg">
<path d="M0 24.1765C0 16.0612 7.58333 10.0332 16.5013 6.26171C25.8093 2.329 38.3673 0 52 0C65.6327 0 78.1907 2.329 87.4987 6.26171C96.4167 10.0332 104 16.0612 104 24.1765V56.7422C101.131 56.2943 98.2022 56.2943 95.3333 56.7422V37.8604C92.8908 39.5254 90.2644 40.9437 87.4987 42.0912C78.1907 46.0239 65.6327 48.3529 52 48.3529C38.3673 48.3529 25.8093 46.0239 16.5013 42.0912C13.7356 40.9437 11.1092 39.5254 8.66667 37.8604V104.765C8.66667 107.779 11.752 111.816 20.0893 115.346C28.028 118.698 39.312 120.882 52 120.882C55.068 120.882 58.0667 120.753 60.9353 120.512C61.3427 123.203 62.2007 125.855 63.5353 128.369C59.7042 128.754 55.8534 128.945 52 128.941C38.3673 128.941 25.8093 126.612 16.5013 122.679C7.58333 118.908 0 112.88 0 104.765V24.1765ZM8.66667 24.1765C8.66667 27.1905 11.752 31.2279 20.0893 34.7577C28.028 38.1102 39.312 40.2941 52 40.2941C64.688 40.2941 75.972 38.1182 83.9107 34.7577C92.248 31.2279 95.3333 27.1824 95.3333 24.1765C95.3333 21.1625 92.248 17.125 83.9107 13.5952C75.972 10.2428 64.688 8.05882 52 8.05882C39.312 8.05882 28.028 10.2347 20.0893 13.5952C11.752 17.125 8.66667 21.1705 8.66667 24.1765ZM117 80.5882C117 84.8629 115.174 88.9625 111.923 91.9851C108.673 95.0078 104.264 96.7059 99.6667 96.7059C95.0696 96.7059 90.6608 95.0078 87.4102 91.9851C84.1595 88.9625 82.3333 84.8629 82.3333 80.5882C82.3333 76.3136 84.1595 72.214 87.4102 69.1913C90.6608 66.1687 95.0696 64.4706 99.6667 64.4706C104.264 64.4706 108.673 66.1687 111.923 69.1913C115.174 72.214 117 76.3136 117 80.5882ZM130 116.853C130 126.886 121.333 137 99.6667 137C78 137 69.3333 126.926 69.3333 116.853C69.3333 113.647 70.703 110.572 73.1409 108.305C75.5789 106.038 78.8855 104.765 82.3333 104.765H117C120.448 104.765 123.754 106.038 126.192 108.305C128.63 110.572 130 113.647 130 116.853Z" fill="url(#paint0_linear_102_11)"/>
<defs>
<linearGradient id="paint0_linear_102_11" x1="28.5816" y1="121.836" x2="188.984" y2="-35.8037" gradientUnits="userSpaceOnUse">
<stop stop-color="#FF0066"/>
<stop offset="1" stop-color="#FF0066" stop-opacity="0"/>
</linearGradient>
</defs>
</svg>
