<svg width="135" height="138" viewBox="0 0 135 138" fill="none" xmlns="http://www.w3.org/2000/svg">
<path d="M132.356 28.056L129.374 26.2984C129.559 25.3554 129.646 24.3954 129.633 23.4342C129.646 22.473 129.559 21.5131 129.374 20.57L132.356 18.8125C132.953 18.4808 133.479 18.0325 133.902 17.4939C134.324 16.9553 134.635 16.3372 134.816 15.6761C134.998 15.015 135.045 14.3242 134.957 13.6443C134.868 12.9644 134.645 12.3092 134.3 11.7171C133.597 10.5246 132.455 9.65798 131.121 9.3047C129.786 8.95142 128.367 9.1399 127.169 9.82936L124.187 11.5869C122.734 10.3361 121.064 9.36507 119.26 8.72274V5.20761C119.26 3.82646 118.714 2.50189 117.741 1.52527C116.769 0.548657 115.45 0 114.074 0C112.699 0 111.379 0.548657 110.407 1.52527C109.434 2.50189 108.888 3.82646 108.888 5.20761V8.72274C107.084 9.36507 105.414 10.3361 103.961 11.5869L100.979 9.82936C99.7816 9.1399 98.3622 8.95142 97.0277 9.3047C95.6932 9.65798 94.5508 10.5246 93.8477 11.7171C93.5032 12.3092 93.2801 12.9644 93.1915 13.6443C93.1029 14.3242 93.1506 15.015 93.3318 15.6761C93.513 16.3372 93.8241 16.9553 94.2467 17.4939C94.6693 18.0325 95.1949 18.4808 95.7926 18.8125L98.7747 20.57C98.5891 21.5131 98.5022 22.473 98.5154 23.4342C98.5022 24.3954 98.5891 25.3554 98.7747 26.2984L95.7926 28.056C94.8128 28.6331 94.0489 29.5173 93.6181 30.5727C93.1874 31.6281 93.1135 32.7963 93.4081 33.8978C93.7026 34.9994 94.3491 35.9734 95.2484 36.6703C96.1476 37.3671 97.2498 37.7483 98.3857 37.7552C99.2995 37.7626 100.197 37.5146 100.979 37.0391L103.961 35.2815C105.414 36.5324 107.084 37.5034 108.888 38.1457V41.6609C108.888 43.042 109.434 44.3666 110.407 45.3432C111.379 46.3198 112.699 46.8685 114.074 46.8685C115.45 46.8685 116.769 46.3198 117.741 45.3432C118.714 44.3666 119.26 43.042 119.26 41.6609V38.1457C121.064 37.5034 122.734 36.5324 124.187 35.2815L127.169 37.0391C127.951 37.5146 128.849 37.7626 129.763 37.7552C130.898 37.7483 132.001 37.3671 132.9 36.6703C133.799 35.9734 134.446 34.9994 134.74 33.8978C135.035 32.7963 134.961 31.6281 134.53 30.5727C134.099 29.5173 133.335 28.6331 132.356 28.056ZM108.888 23.4342C108.888 22.4043 109.192 21.3974 109.762 20.541C110.332 19.6847 111.142 19.0172 112.089 18.623C113.037 18.2289 114.08 18.1258 115.086 18.3267C116.092 18.5276 117.016 19.0236 117.741 19.7519C118.467 20.4802 118.961 21.4081 119.161 22.4183C119.361 23.4285 119.258 24.4755 118.866 25.4271C118.473 26.3787 117.808 27.192 116.955 27.7642C116.103 28.3364 115.1 28.6418 114.074 28.6418C112.699 28.6418 111.379 28.0932 110.407 27.1166C109.434 26.14 108.888 24.8154 108.888 23.4342ZM128.596 57.6742C127.241 57.8376 126.005 58.5306 125.155 59.6028C124.306 60.6751 123.911 62.0404 124.058 63.4026C124.316 65.6935 124.446 67.9972 124.447 70.3027C124.466 84.32 119.342 97.8533 110.055 108.318C104.272 99.8976 96.1257 93.3944 86.6518 89.6359C91.7331 85.6173 95.441 80.1085 97.2598 73.8757C99.0786 67.643 98.9179 60.996 96.8001 54.8592C94.6823 48.7224 90.7125 43.4008 85.443 39.6344C80.1735 35.868 73.8661 33.8441 67.3979 33.8441C60.9297 33.8441 54.6222 35.868 49.3527 39.6344C44.0832 43.4008 40.1135 48.7224 37.9956 54.8592C35.8778 60.996 35.7171 67.643 37.5359 73.8757C39.3547 80.1085 43.0626 85.6173 48.1439 89.6359C38.67 93.3944 30.5236 99.8976 24.741 108.318C17.4466 100.062 12.6828 89.8658 11.0224 78.9557C9.36212 68.0455 10.876 56.886 15.382 46.8192C19.8879 36.7525 27.1942 28.2071 36.422 22.2108C45.6498 16.2145 56.4063 13.0226 67.3979 13.019C69.1732 13.0083 70.9479 13.0952 72.7138 13.2794C73.3948 13.3392 74.081 13.2638 74.733 13.0574C75.385 12.8509 75.9902 12.5176 76.5139 12.0763C77.0376 11.6351 77.4697 11.0946 77.7854 10.4856C78.1011 9.87672 78.2942 9.21133 78.3538 8.52746C78.4134 7.84358 78.3383 7.15462 78.1327 6.49991C77.9271 5.84519 77.5951 5.23754 77.1557 4.71166C76.7162 4.18578 76.1779 3.75196 75.5715 3.43497C74.9651 3.11797 74.3024 2.92402 73.6214 2.86418C71.6117 2.6689 69.4724 2.6038 67.3979 2.6038C53.8127 2.60854 40.5458 6.73409 29.3357 14.4398C18.1256 22.1456 9.49538 33.0721 4.57587 45.7874C-0.343645 58.5027 -1.32291 72.4138 1.76638 85.6975C4.85568 98.9813 11.8694 111.018 21.8885 120.231L22.7313 121.012C35.0568 131.958 50.9433 138 67.3979 138C83.8524 138 99.739 131.958 112.064 121.012L112.907 120.231C119.819 113.898 125.338 106.186 129.111 97.5887C132.884 88.9913 134.828 79.6978 134.819 70.3027C134.831 67.6053 134.68 64.9097 134.365 62.2309C134.285 61.5511 134.072 60.8938 133.738 60.2968C133.405 59.6997 132.957 59.1745 132.421 58.7513C131.885 58.3281 131.272 58.0151 130.615 57.8303C129.959 57.6455 129.273 57.5925 128.596 57.6742ZM46.6529 65.0951C46.6529 60.9752 47.8695 56.9479 50.149 53.5223C52.4285 50.0968 55.6684 47.4269 59.4591 45.8503C63.2498 44.2737 67.4209 43.8612 71.445 44.6649C75.4692 45.4687 79.1656 47.4526 82.0668 50.3658C84.968 53.2789 86.9438 56.9906 87.7443 61.0313C88.5447 65.072 88.1339 69.2603 86.5637 73.0665C84.9936 76.8728 82.3347 80.1261 78.9232 82.415C75.5117 84.7038 71.5008 85.9255 67.3979 85.9255C61.9012 85.9084 56.6346 83.7082 52.7478 79.8055C48.8611 75.9027 46.67 70.6144 46.6529 65.0951ZM32.4555 115.544C36.2085 109.658 41.3761 104.814 47.4823 101.459C53.5886 98.1042 60.4373 96.3458 67.3979 96.3458C74.3584 96.3458 81.2071 98.1042 87.3134 101.459C93.4196 104.814 98.5872 109.658 102.34 115.544C92.3495 123.345 80.0542 127.581 67.3979 127.581C54.7416 127.581 42.4462 123.345 32.4555 115.544Z" fill="url(#paint0_linear_104_3)"/>
<defs>
<linearGradient id="paint0_linear_104_3" x1="29.6809" y1="122.725" x2="191.265" y2="-40.9881" gradientUnits="userSpaceOnUse">
<stop stop-color="#FF0066"/>
<stop offset="1" stop-color="#FF0066" stop-opacity="0"/>
</linearGradient>
</defs>
</svg>
