<svg width="138" height="115" viewBox="0 0 138 115" fill="none" xmlns="http://www.w3.org/2000/svg">
<path d="M81.9218 49.3568L69 43.5135L81.9218 37.6703L87.8182 24.8649L93.7145 37.6703L106.636 43.5135L93.7145 49.3568L87.8182 62.1622L81.9218 49.3568ZM18.8182 74.5946L24.7145 61.7892L37.6364 55.9459L24.7145 50.1027L18.8182 37.2973L12.9218 50.1027L0 55.9459L12.9218 61.7892L18.8182 74.5946ZM47.0455 43.5135L53.8827 28.5324L69 21.7568L53.8827 14.9811L47.0455 0L40.2082 14.9811L25.0909 21.7568L40.2082 28.5324L47.0455 43.5135ZM21.9545 115L59.5909 77.6405L84.6818 102.505L138 43.0784L129.155 34.3135L84.6818 83.8568L59.5909 58.9919L12.5455 105.676L21.9545 115Z" fill="url(#paint0_linear_102_3)"/>
<defs>
<linearGradient id="paint0_linear_102_3" x1="30.3404" y1="102.271" x2="161.885" y2="-61.2163" gradientUnits="userSpaceOnUse">
<stop stop-color="#FF0066"/>
<stop offset="1" stop-color="#FF0066" stop-opacity="0"/>
</linearGradient>
</defs>
</svg>
