<svg width="120" height="131" viewBox="0 0 120 131" fill="none" xmlns="http://www.w3.org/2000/svg">
<path d="M63.7783 28.3833C77.2292 28.3833 82.2166 34.5694 82.67 43.6667H99.3703C98.8413 31.1489 90.9068 19.65 75.1133 15.9383V0H52.4433V15.72C48.4383 16.5933 44.6599 17.9033 41.2594 19.65L52.3678 30.3483C55.466 29.1111 59.2443 28.3833 63.7783 28.3833ZM9.59698 7.71444L0 16.9572L25.995 41.9928C25.995 57.1306 37.7834 65.3544 55.5416 70.4489L82.0655 95.9939C79.4962 99.4872 74.131 102.617 63.7783 102.617C48.2116 102.617 42.0907 95.9211 41.2594 87.3333H24.6348C25.5416 103.272 37.9345 112.223 52.4433 115.207V131H75.1133V115.353C82.3678 114.043 88.8665 111.35 93.6272 107.202L110.403 123.358L120 114.116L9.59698 7.71444Z" fill="url(#paint0_linear_102_5)"/>
<defs>
<linearGradient id="paint0_linear_102_5" x1="26.383" y1="116.5" x2="179.571" y2="-28.834" gradientUnits="userSpaceOnUse">
<stop stop-color="#FF0066"/>
<stop offset="1" stop-color="#FF0066" stop-opacity="0"/>
</linearGradient>
</defs>
</svg>
