<svg width="139" height="122" viewBox="0 0 139 122" fill="none" xmlns="http://www.w3.org/2000/svg">
<path fill-rule="evenodd" clip-rule="evenodd" d="M65.9607 0.667767C67.0695 0.227925 68.2781 0 69.5015 0C70.7249 0 71.9334 0.227925 73.0423 0.667767L137.54 26.3107C137.974 26.4829 138.341 26.7572 138.598 27.1011C138.854 27.445 138.99 27.8443 138.989 28.2517C138.987 28.6591 138.849 29.0578 138.59 29.4006C138.332 29.7433 137.963 30.016 137.528 30.1863L72.5237 55.6364C71.574 56.0084 70.541 56.201 69.4955 56.201C68.4501 56.201 67.417 56.0084 66.4673 55.6364L1.46896 30.1863C1.03201 30.0175 0.661246 29.7455 0.400817 29.4025C0.140389 29.0595 0.00126472 28.6601 8.58184e-06 28.2517C-0.00124755 27.8434 0.135417 27.4433 0.393732 27.0992C0.652047 26.7551 1.02113 26.4814 1.45704 26.3107L65.9607 0.667767ZM137.546 59.1366C137.982 59.3078 138.35 59.5819 138.608 59.9263C138.866 60.2708 139.002 60.671 139 61.0793C138.998 61.4877 138.858 61.8869 138.597 62.2296C138.336 62.5723 137.965 62.844 137.528 63.0122L72.5296 88.4623C71.58 88.8343 70.5469 89.0269 69.5015 89.0269C68.456 89.0269 67.423 88.8343 66.4733 88.4623L1.46896 63.0122C1.03201 62.8435 0.661246 62.5714 0.400817 62.2284C0.140389 61.8855 0.00126472 61.486 8.58184e-06 61.0777C-0.00124755 60.6693 0.135417 60.2693 0.393732 59.9251C0.652047 59.581 1.02113 59.3073 1.45704 59.1366L14.7798 53.8406C15.7339 53.4613 16.7737 53.2634 17.8269 53.2608C18.88 53.2581 19.9211 53.4508 20.8779 53.8254L66.4733 71.6816C68.3927 72.4324 70.6102 72.4324 72.5296 71.6816L118.125 53.8254C119.082 53.4521 120.123 53.2602 121.176 53.2628C122.229 53.2654 123.269 53.4626 124.223 53.8406L137.546 59.1366ZM137.546 92.1097C137.982 92.2809 138.35 92.555 138.608 92.8994C138.866 93.2438 139.002 93.644 139 94.0524C138.998 94.4607 138.858 94.86 138.597 95.2027C138.336 95.5454 137.965 95.817 137.528 95.9853L72.5296 121.435C71.58 121.807 70.5469 122 69.5015 122C68.456 122 67.423 121.807 66.4733 121.435L1.46896 95.9853C1.03201 95.8165 0.661246 95.5445 0.400817 95.2015C0.140389 94.8585 0.00126472 94.4591 8.58184e-06 94.0507C-0.00124755 93.6424 0.135417 93.2423 0.393732 92.8982C0.652047 92.5541 1.02113 92.2804 1.45704 92.1097L14.7798 86.8137C15.7339 86.4343 16.7737 86.2364 17.8269 86.2338C18.88 86.2312 19.9211 86.4239 20.8779 86.7985L66.4733 104.655C68.3927 105.405 70.6102 105.405 72.5296 104.655L118.125 86.7985C119.082 86.4252 120.123 86.2333 121.176 86.2359C122.229 86.2385 123.269 86.4357 124.223 86.8137L137.546 92.1097Z" fill="url(#paint0_linear_102_9)"/>
<defs>
<linearGradient id="paint0_linear_102_9" x1="30.5603" y1="108.496" x2="171.487" y2="-57.799" gradientUnits="userSpaceOnUse">
<stop stop-color="#FF0066"/>
<stop offset="1" stop-color="#FF0066" stop-opacity="0"/>
</linearGradient>
</defs>
</svg>
