<svg width="141" height="131" viewBox="0 0 141 131" fill="none" xmlns="http://www.w3.org/2000/svg">
<path d="M60.4286 131C52.0357 131 44.1755 129.472 36.848 126.415C29.516 123.358 23.1083 119.155 17.625 113.806C12.1417 108.457 7.83333 102.206 4.7 95.0536C1.56667 87.9054 0 80.2375 0 72.05C0 63.8625 1.56667 56.1925 4.7 49.0399C7.83333 41.8916 12.1417 35.6429 17.625 30.2938C23.1083 24.9446 29.516 20.7417 36.848 17.685C44.1755 14.6283 52.0357 13.1 60.4286 13.1C62.7786 13.1 65.0435 13.2354 67.2234 13.5061C69.4078 13.7812 71.619 14.1917 73.8571 14.7375V28.165C71.619 27.51 69.4078 27.0187 67.2234 26.6912C65.0435 26.3637 62.7786 26.2 60.4286 26.2C47.2238 26.2 36.0893 30.6213 27.025 39.4638C17.9607 48.3063 13.4286 59.1683 13.4286 72.05C13.4286 84.9317 17.9607 95.7938 27.025 104.636C36.0893 113.479 47.2238 117.9 60.4286 117.9C73.6333 117.9 84.7679 113.479 93.8321 104.636C102.896 95.7938 107.429 84.9317 107.429 72.05C107.429 70.8492 107.373 69.7575 107.261 68.775C107.149 67.7925 106.981 66.7008 106.757 65.5H120.521C120.745 66.7008 120.857 67.7925 120.857 68.775V72.05C120.857 80.2375 119.29 87.9054 116.157 95.0536C113.024 102.206 108.715 108.457 103.232 113.806C97.7488 119.155 91.3434 123.358 84.0159 126.415C76.6839 129.472 68.8214 131 60.4286 131ZM79.2286 99.56L53.7143 74.67V39.3H67.1429V69.43L88.6286 90.39L79.2286 99.56ZM107.429 52.4V32.75H87.2857V19.65H107.429V0H120.857V19.65H141V32.75H120.857V52.4H107.429Z" fill="url(#paint0_linear_102_13)"/>
<defs>
<linearGradient id="paint0_linear_102_13" x1="31" y1="116.5" x2="183.5" y2="-53.5" gradientUnits="userSpaceOnUse">
<stop stop-color="#FF0066"/>
<stop offset="1" stop-color="#FF0066" stop-opacity="0"/>
</linearGradient>
</defs>
</svg>
