<svg width="227" height="68" viewBox="0 0 227 68" fill="none" xmlns="http://www.w3.org/2000/svg">
<path d="M80.515 26.86C83.045 26.86 85.025 27.63 86.455 29.17C87.885 30.71 88.6 32.8733 88.6 35.66V57H79.91V37.145C79.91 35.6783 79.6717 34.67 79.195 34.12C78.7183 33.5333 78.04 33.24 77.16 33.24C75.4 33.24 73.7133 34.4867 72.1 36.98V57H63.41V16.19L72.1 15.31V30.93C73.31 29.5733 74.5933 28.565 75.95 27.905C77.3067 27.2083 78.8283 26.86 80.515 26.86ZM118.363 48.53C118.363 49.63 118.51 50.4367 118.803 50.95C119.133 51.4633 119.646 51.8483 120.343 52.105L118.528 57.77C116.731 57.6233 115.265 57.2383 114.128 56.615C112.991 55.955 112.111 54.9283 111.488 53.535C109.581 56.4683 106.648 57.935 102.688 57.935C99.7915 57.935 97.4815 57.0917 95.7582 55.405C94.0348 53.7183 93.1732 51.5183 93.1732 48.805C93.1732 45.615 94.3465 43.1767 96.6932 41.49C99.0398 39.8033 102.431 38.96 106.868 38.96H109.838V37.695C109.838 35.9717 109.471 34.7983 108.738 34.175C108.005 33.515 106.721 33.185 104.888 33.185C103.935 33.185 102.78 33.3317 101.423 33.625C100.066 33.8817 98.6732 34.2483 97.2432 34.725L95.2632 29.005C97.0965 28.3083 98.9665 27.7767 100.873 27.41C102.816 27.0433 104.613 26.86 106.263 26.86C110.443 26.86 113.505 27.7217 115.448 29.445C117.391 31.1683 118.363 33.7533 118.363 37.2V48.53ZM105.218 51.72C107.198 51.72 108.738 50.785 109.838 48.915V43.745H107.693C105.713 43.745 104.228 44.0933 103.238 44.79C102.285 45.4867 101.808 46.5683 101.808 48.035C101.808 49.2083 102.101 50.125 102.688 50.785C103.311 51.4083 104.155 51.72 105.218 51.72ZM143.6 55.625C142.537 56.3583 141.29 56.9267 139.86 57.33C138.467 57.7333 137.073 57.935 135.68 57.935C129.3 57.8983 126.11 54.3783 126.11 47.375V33.845H121.985V27.795H126.11V21.47L134.8 20.48V27.795H141.51L140.575 33.845H134.8V47.265C134.8 48.6217 135.02 49.5933 135.46 50.18C135.9 50.7667 136.597 51.06 137.55 51.06C138.54 51.06 139.585 50.7483 140.685 50.125L143.6 55.625ZM158.184 26.86C160.201 26.86 162.016 27.1533 163.629 27.74C165.242 28.3267 166.764 29.225 168.194 30.435L164.454 35.605C162.621 34.2117 160.769 33.515 158.899 33.515C156.956 33.515 155.489 34.23 154.499 35.66C153.509 37.09 153.014 39.4 153.014 42.59C153.014 45.67 153.509 47.8517 154.499 49.135C155.489 50.4183 156.919 51.06 158.789 51.06C159.779 51.06 160.677 50.9133 161.484 50.62C162.291 50.29 163.262 49.7767 164.399 49.08L168.194 54.47C165.297 56.78 162.016 57.935 158.349 57.935C155.379 57.935 152.812 57.3117 150.649 56.065C148.486 54.7817 146.817 53.0033 145.644 50.73C144.471 48.42 143.884 45.725 143.884 42.645C143.884 39.565 144.471 36.8333 145.644 34.45C146.817 32.0667 148.486 30.215 150.649 28.895C152.812 27.5383 155.324 26.86 158.184 26.86ZM188.957 26.86C191.487 26.86 193.467 27.63 194.897 29.17C196.327 30.71 197.042 32.8733 197.042 35.66V57H188.352V37.145C188.352 35.6783 188.114 34.67 187.637 34.12C187.161 33.5333 186.482 33.24 185.602 33.24C183.842 33.24 182.156 34.4867 180.542 36.98V57H171.852V16.19L180.542 15.31V30.93C181.752 29.5733 183.036 28.565 184.392 27.905C185.749 27.2083 187.271 26.86 188.957 26.86ZM219.436 26.97C220.499 26.97 221.471 27.0983 222.351 27.355L220.976 35.77C219.876 35.5133 218.996 35.385 218.336 35.385C216.612 35.385 215.292 35.99 214.376 37.2C213.496 38.3733 212.799 40.1517 212.286 42.535V57H203.596V27.795H211.186L211.901 33.46C212.561 31.4433 213.551 29.8667 214.871 28.73C216.227 27.5567 217.749 26.97 219.436 26.97Z" fill="white"/>
<path d="M27.9997 9.20232C30.8089 4.34846 33.8523 3.75729 35.0228 4.06843M26.8908 9.20232C27.6301 5.04046 28.4309 4 28.739 4M12.8307 36.1429C11.0501 33.4309 10.0121 30.1723 10.0121 26.6673C10.0121 17.2269 17.542 9.57392 26.8307 9.57392C36.1193 9.57392 43.6492 17.2269 43.6492 26.6673C43.6492 30.0136 42.7031 33.1354 41.0678 35.7713M49.1938 31.6838L42.7251 36.5145L34.5931 31.6838L26.8908 36.5145L18.8834 31.6838L11.4907 36.5145L4.65237 31.6838M49.1938 31.6838C51.35 42.1504 50.3283 63.2384 27.4107 63.9816C4.49312 64.7248 2.55775 42.7697 4.65237 31.6838M49.1938 31.6838C51.35 42.1504 50.4461 63.2384 27.5285 63.9816C4.61092 64.7248 2.55775 42.7697 4.65237 31.6838M49.1938 31.6838C51.35 42.1504 50.5639 63.2384 27.6463 63.9816C4.72872 64.7248 2.55775 42.7697 4.65237 31.6838M49.1938 31.6838C51.35 42.1504 50.6817 63.2384 27.7641 63.9816C4.84652 64.7248 2.55775 42.7697 4.65237 31.6838M49.1938 31.6838C51.35 42.1504 50.2105 63.2384 27.2929 63.9816C4.37532 64.7248 2.55775 42.7697 4.65237 31.6838" stroke="white" stroke-width="7"/>
</svg>
